<svg width="14" height="8" viewBox="0 0 14 8" fill="none" xmlns="http://www.w3.org/2000/svg">
<path d="M7.71035 5.71277C7.61739 5.80649 7.50679 5.88089 7.38494 5.93165C7.26309 5.98242 7.13239 6.00855 7.00039 6.00855C6.86838 6.00855 6.73769 5.98242 6.61583 5.93165C6.49398 5.88089 6.38339 5.80649 6.29043 5.71277L1.71069 1.12304C1.61774 1.02931 1.50714 0.954924 1.38529 0.904159C1.26344 0.853393 1.13274 0.827257 1.00073 0.827257C0.86873 0.827257 0.738032 0.853393 0.61618 0.904159C0.494328 0.954924 0.383733 1.02931 0.290775 1.12304C0.104535 1.31039 -2.81334e-07 1.56383 -2.69787e-07 1.828C-2.5824e-07 2.09217 0.104535 2.3456 0.290775 2.53296L4.88051 7.12269C5.44298 7.68446 6.20543 8 7.00039 8C7.79534 8 8.5578 7.68446 9.12026 7.12269L13.71 2.53296C13.8947 2.34671 13.9989 2.09532 14 1.833C14.0007 1.7014 13.9755 1.57094 13.9258 1.44911C13.876 1.32728 13.8027 1.21647 13.71 1.12304C13.617 1.02931 13.5064 0.954924 13.3846 0.904158C13.2627 0.853392 13.132 0.827256 13 0.827256C12.868 0.827256 12.7373 0.853393 12.6155 0.904158C12.4936 0.954924 12.383 1.02931 12.2901 1.12304L7.71035 5.71277Z" fill="white"/>
</svg>
