<svg width="19" height="19" viewBox="0 0 19 19" fill="none" xmlns="http://www.w3.org/2000/svg">
<g clip-path="url(#clip0_1257_4885)">
<path d="M12.0838 13.7381V16.3534C12.0838 16.7003 11.9501 17.0329 11.712 17.2781C11.474 17.5234 11.1512 17.6611 10.8146 17.6611H1.92994C1.59332 17.6611 1.27048 17.5234 1.03245 17.2781C0.794428 17.0329 0.660706 16.7003 0.660706 16.3534V1.96883C0.660706 1.622 0.794428 1.28939 1.03245 1.04415C1.27048 0.798907 1.59332 0.661133 1.92994 0.661133H10.8146C11.1512 0.661133 11.474 0.798907 11.712 1.04415C11.9501 1.28939 12.0838 1.622 12.0838 1.96883V4.58421" stroke="#E4E4E4" stroke-width="1.5" stroke-linecap="square" stroke-linejoin="round"/>
<path d="M8.27612 9.16113H17.1607" stroke="#E4E4E4" stroke-width="1.5" stroke-linecap="round" stroke-linejoin="round"/>
<path d="M14.6223 6.5459L17.1607 9.16128L14.6223 11.7767" stroke="#E4E4E4" stroke-width="1.5" stroke-linecap="square" stroke-linejoin="round"/>
</g>
<defs>
<clipPath id="clip0_1257_4885">
<rect width="18.5" height="18.5" fill="white"/>
</clipPath>
</defs>
</svg>
