<svg width="20" height="20" viewBox="0 0 20 20" fill="none" xmlns="http://www.w3.org/2000/svg">
<path d="M9.99986 19.2853C15.1282 19.2853 19.2856 15.1279 19.2856 9.99958C19.2856 4.87122 15.1282 0.713867 9.99986 0.713867C4.8715 0.713867 0.714142 4.87122 0.714142 9.99958C0.714142 15.1279 4.8715 19.2853 9.99986 19.2853Z" stroke="#E4E4E4" stroke-width="1.3" stroke-linecap="round" stroke-linejoin="round"/>
<path d="M7.85699 7.85673C7.85699 7.43291 7.98267 7.01861 8.21813 6.66622C8.45359 6.31383 8.78826 6.03917 9.17982 5.87698C9.57137 5.7148 10.0022 5.67236 10.4179 5.75504C10.8336 5.83773 11.2154 6.04181 11.5151 6.3415C11.8148 6.64118 12.0189 7.023 12.1015 7.43868C12.1842 7.85435 12.1418 8.28521 11.9796 8.67676C11.8174 9.06832 11.5428 9.40299 11.1904 9.63845C10.838 9.87391 10.4237 9.99958 9.99985 9.99958V11.4282" stroke="#E4E4E4" stroke-width="1.3" stroke-linecap="round" stroke-linejoin="round"/>
<path d="M9.99986 14.9994C9.80261 14.9994 9.64272 14.8395 9.64272 14.6423C9.64272 14.4451 9.80261 14.2852 9.99986 14.2852" stroke="#E4E4E4" stroke-width="1.3" stroke-linecap="round" stroke-linejoin="round"/>
<path d="M9.99985 14.9994C10.1971 14.9994 10.357 14.8395 10.357 14.6423C10.357 14.4451 10.1971 14.2852 9.99985 14.2852" stroke="#E4E4E4" stroke-width="1.3" stroke-linecap="round" stroke-linejoin="round"/>
</svg>
