<svg width="28" height="26" viewBox="0 0 28 26" fill="none" xmlns="http://www.w3.org/2000/svg">
<path d="M10 10C12.4853 10 14.5 7.98528 14.5 5.5C14.5 3.01472 12.4853 1 10 1C7.51472 1 5.5 3.01472 5.5 5.5C5.5 7.98528 7.51472 10 10 10Z" stroke="#E4E4E4" stroke-width="1.5" stroke-linecap="round" stroke-linejoin="round"/>
<path d="M19 25H1V23C1 20.6131 1.94821 18.3239 3.63604 16.636C5.32387 14.9482 7.61305 14 10 14C12.3869 14 14.6761 14.9482 16.364 16.636C18.0518 18.3239 19 20.6131 19 23V25Z" stroke="#E4E4E4" stroke-width="1.5" stroke-linecap="round" stroke-linejoin="round"/>
<path d="M18 1C19.1935 1 20.3381 1.47411 21.182 2.31802C22.0259 3.16193 22.5 4.30653 22.5 5.5C22.5 6.69347 22.0259 7.83807 21.182 8.68198C20.3381 9.52589 19.1935 10 18 10" stroke="#E4E4E4" stroke-width="1.5" stroke-linecap="round" stroke-linejoin="round"/>
<path d="M21.2 14.3799C22.9037 15.028 24.3704 16.1781 25.4061 17.6781C26.4418 19.178 26.9976 20.9571 27 22.7799V24.9999H24" stroke="#E4E4E4" stroke-width="1.5" stroke-linecap="round" stroke-linejoin="round"/>
</svg>
