<svg width="34" height="34" viewBox="0 0 34 34" fill="none" xmlns="http://www.w3.org/2000/svg">
<g clip-path="url(#clip0_1127_3974)">
<path d="M21.4084 9.41436L20.7572 9.20017C20.6726 9.45672 20.5378 9.69388 20.3607 9.89787C20.1836 10.1019 19.9677 10.2686 19.7255 10.3884C19.4834 10.5082 19.2199 10.5787 18.9503 10.5958C18.6807 10.6129 18.4104 10.5762 18.1551 10.4879C17.6386 10.3068 17.2138 9.9303 16.9719 9.43933C16.73 8.94836 16.6904 8.3821 16.8616 7.86225L15.5769 7.40458C15.3994 7.34386 15.2115 7.31974 15.0245 7.33368C14.8375 7.34762 14.6553 7.39933 14.4888 7.48568C14.3223 7.57204 14.1751 7.69124 14.056 7.83609C13.9369 7.98094 13.8484 8.14843 13.7958 8.32845C13.7958 8.32845 12.8415 11.0946 11.7887 14.2217" stroke="#00FF00" stroke-width="1.5" stroke-linecap="round" stroke-linejoin="round"/>
<path d="M28.9572 16.783C28.6879 16.9284 28.3919 17.0177 28.0872 17.0453C27.7824 17.073 27.4751 17.0385 27.1841 16.9439C26.893 16.8494 26.6242 16.6967 26.3939 16.4952C26.1636 16.2936 25.9766 16.0474 25.8442 15.7715C25.7118 15.4956 25.6369 15.1957 25.6238 14.8899C25.6108 14.5841 25.66 14.2789 25.7684 13.9927C25.8768 13.7065 26.0422 13.4453 26.2545 13.2249C26.4668 13.0045 26.7217 12.8295 27.0037 12.7106L26.4103 11.2976C26.2388 10.9347 25.9312 10.6541 25.5541 10.5166C25.177 10.3791 24.761 10.3959 24.3962 10.5633L11.0439 16.7606L9.33653 17.5266C8.97364 17.698 8.693 18.0057 8.55552 18.3828C8.41805 18.7598 8.43483 19.1759 8.60221 19.5407L11.7769 26.4009C11.9484 26.7638 12.256 27.0445 12.6331 27.1819C13.0102 27.3194 13.4263 27.3026 13.7911 27.1353L28.8851 20.1338C29.2303 19.9657 29.4994 19.6736 29.6385 19.3158C29.7777 18.958 29.7768 18.5609 29.6359 18.2037L28.9572 16.783Z" stroke="#E4E4E4" stroke-width="1.5" stroke-linecap="round" stroke-linejoin="round"/>
</g>
<defs>
<clipPath id="clip0_1127_3974">
<rect width="23.98" height="23.98" fill="white" transform="translate(16.0729) rotate(42.0874)"/>
</clipPath>
</defs>
</svg>
