<svg width="23" height="15" viewBox="0 0 23 15" fill="none" xmlns="http://www.w3.org/2000/svg">
<path fill-rule="evenodd" clip-rule="evenodd" d="M10.498 9.9593C12.4922 8.63167 13.3819 6.1549 12.6884 3.86176C11.9949 1.56862 9.88175 0 7.48603 0C5.09032 0 2.97715 1.56862 2.28365 3.86176C1.59014 6.1549 2.47988 8.63167 4.47409 9.9593C2.71719 10.6068 1.21675 11.8051 0.196668 13.3753C0.0507607 13.5921 0.0329359 13.8707 0.150021 14.1044C0.267105 14.3381 0.500956 14.4906 0.762009 14.5036C1.02306 14.5165 1.27086 14.3879 1.41051 14.167C2.74737 12.1108 5.03349 10.8704 7.48603 10.8704C9.93857 10.8704 12.2247 12.1108 13.5616 14.167C13.7827 14.4957 14.2269 14.5858 14.5587 14.3694C14.8906 14.153 14.9871 13.7102 14.7754 13.3753C13.7553 11.8051 12.2549 10.6068 10.498 9.9593ZM3.5003 5.4373C3.5003 3.23604 5.28477 1.45156 7.48603 1.45156C9.68729 1.45156 11.4718 3.23604 11.4718 5.4373C11.4718 7.63856 9.68729 9.42303 7.48603 9.42303C5.28581 9.42054 3.5028 7.63752 3.5003 5.4373ZM22.5358 14.378C22.2006 14.5966 21.7517 14.5021 21.533 14.167C20.1977 12.1094 17.9104 10.8691 15.4575 10.8724C15.0573 10.8724 14.7328 10.5479 14.7328 10.1477C14.7328 9.74748 15.0573 9.42303 15.4575 9.42303C17.0627 9.42152 18.5104 8.4572 19.1303 6.9765C19.7502 5.4958 19.4213 3.78773 18.296 2.64305C17.1706 1.49836 15.4684 1.14049 13.9773 1.73509C13.7353 1.83972 13.4556 1.80464 13.2469 1.6435C13.0382 1.48236 12.9335 1.2206 12.9735 0.959989C13.0135 0.69938 13.1919 0.481055 13.4393 0.389908C16.0236 -0.640762 18.969 0.446681 20.2636 2.90945C21.5581 5.37222 20.7838 8.41496 18.4695 9.9593C20.2264 10.6068 21.7268 11.8051 22.7469 13.3753C22.9655 13.7105 22.871 14.1594 22.5358 14.378Z" fill="#FEFEFE"/>
</svg>
