<svg width="16" height="16" viewBox="0 0 16 16" fill="none" xmlns="http://www.w3.org/2000/svg">
<path d="M1.41711 7.47421L14.56 1.49707" stroke="#E4E4E4" stroke-linecap="round" stroke-linejoin="round"/>
<path d="M12.1028 0.571289L14.56 1.497L13.6457 3.95415" stroke="#E4E4E4" stroke-linecap="round" stroke-linejoin="round"/>
<path d="M15.1428 15.4395H12.2857V7.43945C12.2857 7.2879 12.3459 7.14256 12.453 7.03539C12.5602 6.92823 12.7056 6.86803 12.8571 6.86803H14.5714C14.7229 6.86803 14.8683 6.92823 14.9755 7.03539C15.0826 7.14256 15.1428 7.2879 15.1428 7.43945L15.1428 15.4395Z" stroke="#E4E4E4" stroke-linecap="round" stroke-linejoin="round"/>
<path d="M9.42853 15.4395H6.57138L6.57138 9.15374C6.57138 9.00219 6.63159 8.85684 6.73875 8.74968C6.84592 8.64251 6.99126 8.58231 7.14281 8.58231H8.8571C9.00865 8.58231 9.154 8.64251 9.26116 8.74968C9.36832 8.85684 9.42853 9.00219 9.42853 9.15374V15.4395Z" stroke="#E4E4E4" stroke-linecap="round" stroke-linejoin="round"/>
<path d="M3.71423 15.4395H0.85709L0.85709 10.868C0.85709 10.7165 0.917294 10.5711 1.02446 10.464C1.13162 10.3568 1.27697 10.2966 1.42852 10.2966H3.1428C3.29436 10.2966 3.4397 10.3568 3.54687 10.464C3.65403 10.5711 3.71423 10.7165 3.71423 10.868L3.71423 15.4395Z" stroke="#E4E4E4" stroke-linecap="round" stroke-linejoin="round"/>
</svg>
