<svg width="26" height="26" viewBox="0 0 26 26" fill="none" xmlns="http://www.w3.org/2000/svg">
<g clip-path="url(#clip0_1127_3955)">
<path d="M12.9286 14.7747C15.4776 14.7747 17.544 12.7083 17.544 10.1593C17.544 7.61032 15.4776 5.54395 12.9286 5.54395C10.3796 5.54395 8.31323 7.61032 8.31323 10.1593C8.31323 12.7083 10.3796 14.7747 12.9286 14.7747Z" stroke="#E4E4E4" stroke-width="1.3" stroke-linecap="round" stroke-linejoin="round"/>
<path d="M5.04553 21.9751C5.86936 20.6228 7.02721 19.5052 8.40776 18.7297C9.78831 17.9542 11.3451 17.5469 12.9286 17.5469C14.5121 17.5469 16.0689 17.9542 17.4495 18.7297C18.83 19.5052 19.9879 20.6228 20.8117 21.9751" stroke="#E4E4E4" stroke-width="1.3" stroke-linecap="round" stroke-linejoin="round"/>
<path d="M12.9286 24.9287C19.556 24.9287 24.9286 19.5561 24.9286 12.9287C24.9286 6.30129 19.556 0.928711 12.9286 0.928711C6.30117 0.928711 0.928589 6.30129 0.928589 12.9287C0.928589 19.5561 6.30117 24.9287 12.9286 24.9287Z" stroke="#E4E4E4" stroke-width="1.3" stroke-linecap="round" stroke-linejoin="round"/>
</g>
<defs>
<clipPath id="clip0_1127_3955">
<rect width="26" height="26" fill="white"/>
</clipPath>
</defs>
</svg>
